<svg id="Layer_1" data-name="Layer 1" xmlns="http://www.w3.org/2000/svg" viewBox="0 0 1232.64 1110.7"><defs><style>.cls-1{fill:#fff;}</style></defs><title>FAVICON RAIN WHITE</title><path class="cls-1" d="M1245,1131.65,975.28,805.75c67.15-15.72,123.3-46,166.93-90a309.73,309.73,0,0,0,32-37.94c.49-.68,1-1.37,1.43-2,1.1-1.57,2.21-3.14,3.29-4.73,38.72-57.24,59.19-127.94,58.53-204.31C1235.78,289.43,1106.46,110,862.4,110H222.71L332.27,243.8H862.4c68.18,0,125.73,21.76,166.45,62.94,39.66,40.13,62,97.87,61.33,158.43,0,2.58-.08,5.12-.16,7.65,0,.45,0,.9,0,1.35-.07,2.07-.17,4.11-.27,6.15-.07,1.26-.14,2.52-.22,3.79,0,.25,0,.5,0,.75-3.46,52.76-19.5,108.25-62.91,147.74-.78.7-1.55,1.39-2.33,2.07l-.82.71c-41.52,35.61-96.84,48.71-149.45,51.27l-.4,0-4.27.18c-2,.07-4.12.14-6.22.18l-1.83,0c-2.58.05-5.18.08-7.82.08H688.16l68.21,83.3L1134,1220.7h184.65Z" transform="translate(-86 -110)"/><path class="cls-1" d="M882.82,1189c.65-1.27,1.27-2.56,1.83-3.88.18-.41.35-.82.52-1.24.06-.16.13-.32.2-.48a57.15,57.15,0,0,0-5.13-53.12l-.1-.15c-.33-.51-.67-1-1-1.51l-.26-.39c-.32-.45-.65-.89-1-1.34l-.36-.48c-.45-.59-.91-1.18-1.39-1.76L824.81,1062,86,159.8h0V361.54l683.83,837.55a58.57,58.57,0,0,0,45.54,21.61h15.26c.77,0,1.53,0,2.29,0h.2c.69,0,1.38-.06,2.07-.11l.18,0a57.22,57.22,0,0,0,46.56-29.86l.66-1.24Z" transform="translate(-86 -110)"/><path class="cls-1" d="M566.41,1189a61.13,61.13,0,0,0,2.57-5.65,57.12,57.12,0,0,0-5.07-52.95l-.19-.3c-.28-.43-.57-.86-.87-1.28l-.42-.62c-.22-.31-.45-.61-.68-.92s-.43-.61-.66-.91l-.24-.3c-.37-.48-.74-1-1.12-1.42L86,546h0V748.15l367.55,450.91a58.57,58.57,0,0,0,45.58,21.64h15.1c.77,0,1.53,0,2.29,0h.13c.72,0,1.43-.06,2.15-.11h.1a57.21,57.21,0,0,0,46.63-29.88c.16-.3.32-.59.47-.89S566.28,1189.26,566.41,1189Z" transform="translate(-86 -110)"/><path class="cls-1" d="M242.71,1132.12l-.06-.09c-.3-.5-.6-1-.92-1.48l-.32-.5c-.22-.34-.46-.68-.69-1s-.39-.57-.59-.86l-.41-.55c-.72-1-1.47-2-2.26-3L86,939.65h0v202.29l1.73,2.12,44.83,55c.48.6,1,1.17,1.5,1.74a58.47,58.47,0,0,0,44.07,19.91H192c.77,0,1.54,0,2.3,0h.14c.71,0,1.42-.06,2.13-.11h.12a57.22,57.22,0,0,0,46.6-29.86,60.18,60.18,0,0,0,3.48-7.35A57.1,57.1,0,0,0,242.71,1132.12Z" transform="translate(-86 -110)"/></svg>