<svg id="Layer_1" data-name="Layer 1" xmlns="http://www.w3.org/2000/svg" xmlns:xlink="http://www.w3.org/1999/xlink" viewBox="0 0 631.37 568.91"><defs><style>.cls-1{fill:#fff;}.cls-2{fill:url(#linear-gradient);}.cls-3{fill:url(#linear-gradient-2);}.cls-4{fill:url(#linear-gradient-3);}</style><linearGradient id="linear-gradient" x1="621.12" y1="384.4" x2="920.92" y2="746.84" gradientUnits="userSpaceOnUse"><stop offset="0.01" stop-color="#00cd2e"/><stop offset="0.15" stop-color="#01d759"/><stop offset="0.37" stop-color="#01e594"/><stop offset="0.57" stop-color="#02f0c2"/><stop offset="0.75" stop-color="#03f8e3"/><stop offset="0.9" stop-color="#03fdf8"/><stop offset="1" stop-color="#03ffff"/></linearGradient><linearGradient id="linear-gradient-2" x1="558.4" y1="505.39" x2="858.2" y2="867.83" xlink:href="#linear-gradient"/><linearGradient id="linear-gradient-3" x1="494.39" y1="628.21" x2="794.19" y2="990.66" xlink:href="#linear-gradient"/></defs><title>FAVICON LOGO RAIN IJOBIRU</title><path class="cls-1" d="M1045.13,622.74c34-7.94,63-23.42,85.5-46.11,31.93-32.18,49.22-77.49,48.79-127.55-.86-90.79-67.1-182.7-192.11-182.7H659.66l56.12,68.53H987.31c34.94,0,64.4,11.15,85.26,32.24,20.34,20.58,31.77,50.14,31.41,81.15-.54,51.86-22.06,113.7-121.29,113.7H898.07L933,604.62l193.45,230.67H1221Z" transform="translate(-589.63 -266.38)"/><path class="cls-2" d="M994.34,786.09,589.63,291.89V395.22l350.26,429a30.11,30.11,0,0,0,23.33,11.07H971C996.45,835.29,1010.44,805.75,994.34,786.09Z" transform="translate(-589.63 -266.38)"/><path class="cls-3" d="M777.9,824.2a30.1,30.1,0,0,0,23.34,11.09H809c25.42,0,39.41-29.53,23.31-49.2L589.63,489.7V593.24Z" transform="translate(-589.63 -266.38)"/><path class="cls-4" d="M613.48,824.2a30.1,30.1,0,0,0,23.34,11.09h7.08c25.42,0,39.41-29.53,23.31-49.2l-77.58-94.76V795Z" transform="translate(-589.63 -266.38)"/></svg>