<svg id="Layer_1" data-name="Layer 1" xmlns="http://www.w3.org/2000/svg" xmlns:xlink="http://www.w3.org/1999/xlink" viewBox="0 0 1232.64 1110.7"><defs><style>.cls-1{fill:url(#linear-gradient);}.cls-2{fill:url(#linear-gradient-2);}.cls-3{fill:url(#linear-gradient-3);}.cls-4{fill:url(#linear-gradient-4);}.cls-5{fill:url(#linear-gradient-5);}.cls-6{fill:url(#linear-gradient-6);}.cls-7{fill:url(#linear-gradient-7);}.cls-8{fill:url(#linear-gradient-8);}</style><linearGradient id="linear-gradient" x1="770.68" y1="1559.57" x2="770.68" y2="97.75" gradientUnits="userSpaceOnUse"><stop offset="0" stop-color="#0065e3"/><stop offset="1" stop-color="#03e4fa"/></linearGradient><linearGradient id="linear-gradient-2" x1="-329.28" y1="-214.88" x2="2076.7" y2="2626.84" xlink:href="#linear-gradient"/><linearGradient id="linear-gradient-3" x1="-516.61" y1="-56.28" x2="1889.38" y2="2785.44" xlink:href="#linear-gradient"/><linearGradient id="linear-gradient-4" x1="-707.16" y1="105.06" x2="1698.83" y2="2946.78" xlink:href="#linear-gradient"/><linearGradient id="linear-gradient-5" x1="770.68" y1="-1051.46" x2="770.68" y2="754.61" xlink:href="#linear-gradient"/><linearGradient id="linear-gradient-6" x1="1627.42" y1="2183.91" x2="250.76" y2="453.62" xlink:href="#linear-gradient"/><linearGradient id="linear-gradient-7" x1="1436.36" y1="2335.93" x2="59.7" y2="605.63" xlink:href="#linear-gradient"/><linearGradient id="linear-gradient-8" x1="1241.75" y1="2490.76" x2="-134.9" y2="760.47" xlink:href="#linear-gradient"/></defs><title>FAVICON RAIN COLOR</title><path class="cls-1" d="M975.27,805.74c66.31-15.52,123-45.73,166.94-90,62.33-62.83,96.09-151.28,95.25-249C1235.78,289.43,1106.46,110,862.4,110H222.71L332.27,243.79H862.4c68.21,0,125.73,21.77,166.45,62.94,39.72,40.18,62,97.89,61.34,158.43-1.07,101.25-43.09,222-236.8,222H688.17l68.14,83.21L1134,1220.7h184.64Z" transform="translate(-86 -110)"/><path class="cls-2" d="M876.13,1124.64,86,159.8V361.53l683.83,837.56a58.78,58.78,0,0,0,45.55,21.61h15.25C880.25,1220.7,907.57,1163,876.13,1124.64Z" transform="translate(-86 -110)"/><path class="cls-3" d="M453.56,1199.05a58.78,58.78,0,0,0,45.57,21.65h15.1c49.61,0,76.93-57.66,45.5-96L86,546V748.14Z" transform="translate(-86 -110)"/><path class="cls-4" d="M132.56,1199.05a58.79,58.79,0,0,0,45.58,21.65H192c49.61,0,76.93-57.66,45.5-96L86,939.65v202.29Z" transform="translate(-86 -110)"/><path class="cls-5" d="M1142.21,715.72c62.26-62.78,96.09-151.21,95.25-249C1235.78,289.44,1106.41,110,862.4,110H222.71L332.27,243.8H862.4c68.18,0,125.73,21.76,166.45,62.94,39.66,40.13,62,97.87,61.33,158.43-1.94,183.46-129.84,222-236.8,222H688.16l68.21,83.3L1134,1220.7h184.65L975.28,805.75C1042.43,790,1098.58,759.74,1142.21,715.72Zm136.17,486H1142.84L771,758.35l-42.79-52.26H853.38c209.27,0,254.58-130.91,255.75-240.71.74-65.58-23.62-128.25-66.82-172C998,248.56,935.75,224.85,862.4,224.85H341.25L262.71,129H862.4c231.69,0,354.52,170,356.12,337.91.8,92.72-31.08,176.36-89.76,235.52-41.08,41.46-94.17,70-157.8,84.92l-29.76,7Z" transform="translate(-86 -110)"/><path class="cls-6" d="M86,159.8V361.54l683.83,837.55a58.57,58.57,0,0,0,45.54,21.61h15.26c23.3,0,43.17-12.57,53.14-33.63s7.12-44.38-7.64-62.42ZM866.66,1179a39.05,39.05,0,0,1-36,22.79H815.37a39.7,39.7,0,0,1-30.87-14.65L104.94,354.78V212.84l756.54,923.81A39.07,39.07,0,0,1,866.66,1179Z" transform="translate(-86 -110)"/><path class="cls-7" d="M86,546V748.15l367.55,450.91a58.57,58.57,0,0,0,45.58,21.64h15.1c23.3,0,43.17-12.57,53.13-33.62s7.13-44.38-7.63-62.42Zm464.25,633a39,39,0,0,1-36,22.78h-15.1a39.68,39.68,0,0,1-30.89-14.67L104.94,741.4V599l440.14,537.62A39,39,0,0,1,550.25,1179Z" transform="translate(-86 -110)"/><path class="cls-8" d="M86,939.65v202.29l46.56,57.11a58.52,58.52,0,0,0,45.57,21.65H192c23.31,0,43.18-12.57,53.14-33.62s7.13-44.38-7.63-62.42ZM228,1179a39,39,0,0,1-36,22.78H178.13a39.64,39.64,0,0,1-30.88-14.67l-42.31-51.89V992.69l117.86,144A39,39,0,0,1,228,1179Z" transform="translate(-86 -110)"/></svg>