<svg id="Layer_1" data-name="Layer 1" xmlns="http://www.w3.org/2000/svg" xmlns:xlink="http://www.w3.org/1999/xlink" viewBox="0 0 1317 516.2"><defs><style>.cls-1{fill:#fff;}.cls-2{fill:url(#linear-gradient);}.cls-3{fill:url(#linear-gradient-2);}.cls-4{fill:url(#linear-gradient-3);}</style><linearGradient id="linear-gradient" x1="342.15" y1="359.27" x2="537.47" y2="595.4" gradientUnits="userSpaceOnUse"><stop offset="0.01" stop-color="#00cd2e"/><stop offset="0.15" stop-color="#01d759"/><stop offset="0.37" stop-color="#01e594"/><stop offset="0.57" stop-color="#02f0c2"/><stop offset="0.75" stop-color="#03f8e3"/><stop offset="0.9" stop-color="#03fdf8"/><stop offset="1" stop-color="#03ffff"/></linearGradient><linearGradient id="linear-gradient-2" x1="301.28" y1="438.1" x2="496.6" y2="674.23" xlink:href="#linear-gradient"/><linearGradient id="linear-gradient-3" x1="259.58" y1="518.12" x2="454.9" y2="754.25" xlink:href="#linear-gradient"/></defs><title>LOGO RAIN IJOBIRU</title><rect class="cls-1" x="876.79" width="46.16" height="370.65"/><polygon class="cls-1" points="626.76 0 460.51 370.65 511.08 370.65 549.22 284.39 697.29 284.39 678.92 239.73 568.36 239.73 647.66 60.11 784.73 370.65 835.3 370.65 669.05 0 626.76 0"/><path class="cls-1" d="M386.89,731.66a30,30,0,0,0-5.1-8.45,32.46,32.46,0,0,0-7.26-6.3,33,33,0,0,0-8.8-3.92,35.06,35.06,0,0,0-9.67-1.35,33.6,33.6,0,0,0-13.41,2.69,34.84,34.84,0,0,0-10.94,7.38,35.52,35.52,0,0,0-7.39,11.15,35.62,35.62,0,0,0,7.39,38.78,34.56,34.56,0,0,0,10.94,7.4,33.59,33.59,0,0,0,13.41,2.68,35.81,35.81,0,0,0,9.64-1.31,33.06,33.06,0,0,0,8.77-3.85,32.14,32.14,0,0,0,7.24-6.26,29.88,29.88,0,0,0,5.09-8.44h18.1a42.3,42.3,0,0,1-7.39,15,48.86,48.86,0,0,1-11.72,11,53.19,53.19,0,0,1-14.39,6.76,53.79,53.79,0,0,1-29.21.54,52.18,52.18,0,0,1-12.42-5.07,53.42,53.42,0,0,1-10.54-7.85,49.18,49.18,0,0,1-8.14-10.14,50.92,50.92,0,0,1-5.21-12,48.95,48.95,0,0,1,0-26.87,51,51,0,0,1,5.21-12,48.92,48.92,0,0,1,8.14-10.14,52.3,52.3,0,0,1,23-12.84,53.53,53.53,0,0,1,13.87-1.77,55.06,55.06,0,0,1,15.34,2.23,52.26,52.26,0,0,1,14.39,6.64,47.49,47.49,0,0,1,11.72,11,42.9,42.9,0,0,1,7.39,15.39Z" transform="translate(-304 -280.73)"/><path class="cls-1" d="M549,761.42H528.58v33.46H511V698.7H552.5A38.42,38.42,0,0,1,565.9,701a31.67,31.67,0,0,1,10.57,6.41,28.92,28.92,0,0,1,6.92,9.93,32.25,32.25,0,0,1,2.49,12.8,34.79,34.79,0,0,1-1.36,9.8,29.08,29.08,0,0,1-3.85,8.23,28.53,28.53,0,0,1-6.08,6.43,31.47,31.47,0,0,1-8,4.46l21.43,35.86H567.84Zm3-15.2a17.28,17.28,0,0,0,6.42-1.17,15.72,15.72,0,0,0,5.19-3.24,15.27,15.27,0,0,0,3.44-5.07,17.63,17.63,0,0,0,0-13.14,15.29,15.29,0,0,0-8.68-8.5,17.61,17.61,0,0,0-6.52-1.2H528.58v32.32Z" transform="translate(-304 -280.73)"/><path class="cls-1" d="M689.47,698.7h65.89V714H707.07v25.75h41.72v15.13H707.07v24.83H756v15.2H689.47Z" transform="translate(-304 -280.73)"/><path class="cls-1" d="M920.62,776.56H876.29l-7.58,18.32H850.12l40-96.25h16.71l40,96.25H928.18Zm-38.13-15.14h31.85l-15.29-37.11-.58-2.48h-.06l-.58,2.48Z" transform="translate(-304 -280.73)"/><path class="cls-1" d="M1056.09,713.9h-28.58V698.7h74.84v15.2h-28.66v81h-17.6Z" transform="translate(-304 -280.73)"/><path class="cls-1" d="M1204,698.7h17.6v96.18H1204Z" transform="translate(-304 -280.73)"/><path class="cls-1" d="M1326.7,746.64a47,47,0,0,1,1.88-13.43,51,51,0,0,1,5.21-12,48.92,48.92,0,0,1,8.14-10.14,52.3,52.3,0,0,1,23-12.84,55,55,0,0,1,27.68,0,52.08,52.08,0,0,1,23,12.84,49.07,49.07,0,0,1,8.17,10.14,50,50,0,0,1,5.27,12,48.95,48.95,0,0,1,0,26.87,49.87,49.87,0,0,1-5.27,12,49.33,49.33,0,0,1-8.17,10.14A53.35,53.35,0,0,1,1405,790.1a52.06,52.06,0,0,1-12.45,5.07,55.3,55.3,0,0,1-27.68,0,52.18,52.18,0,0,1-12.42-5.07,53.42,53.42,0,0,1-10.54-7.85,49.18,49.18,0,0,1-8.14-10.14,50.92,50.92,0,0,1-5.21-12A47,47,0,0,1,1326.7,746.64Zm17.6.07a34.82,34.82,0,0,0,2.72,13.83,35.29,35.29,0,0,0,7.39,11.1,34.56,34.56,0,0,0,10.94,7.4,33.59,33.59,0,0,0,13.41,2.68,34,34,0,0,0,13.49-2.68,34,34,0,0,0,18.32-18.5,36.82,36.82,0,0,0,0-27.68,33.79,33.79,0,0,0-18.32-18.53,34,34,0,0,0-13.49-2.69,33.6,33.6,0,0,0-13.41,2.69,34.84,34.84,0,0,0-10.94,7.38,35.52,35.52,0,0,0-7.39,11.15A35.06,35.06,0,0,0,1344.3,746.71Z" transform="translate(-304 -280.73)"/><path class="cls-1" d="M1621,794.88h-15.12l-52.34-65.7v65.7h-17.6V698.7h15.14l52.4,65.69V698.7H1621Z" transform="translate(-304 -280.73)"/><polygon class="cls-1" points="1270.35 0.04 1270.22 300.84 1025.71 0 999.71 0 999.71 370.65 1046.36 370.65 1046.36 98.45 1268.69 370.69 1317 370.69 1317 0.04 1270.35 0.04"/><path class="cls-1" d="M618.39,514.55c22.12-5.18,41.06-15.26,55.71-30,20.8-21,32.06-50.48,31.78-83.1-.56-59.15-43.71-119-125.16-119H367.25L403.82,327h176.9c22.77,0,42,7.26,55.55,21,13.25,13.41,20.7,32.67,20.47,52.87-.36,33.79-14.38,74.08-79,74.08H522.58l22.74,27.76L671.36,653H733Z" transform="translate(-304 -280.73)"/><path class="cls-2" d="M585.3,621,321.63,299v67.32l228.2,279.5A19.64,19.64,0,0,0,565,653h5.09A19.63,19.63,0,0,0,585.3,621Z" transform="translate(-304 -280.73)"/><path class="cls-3" d="M444.29,645.8A19.59,19.59,0,0,0,459.5,653h5a19.62,19.62,0,0,0,15.19-32L321.63,427.87v67.46Z" transform="translate(-304 -280.73)"/><path class="cls-4" d="M337.17,645.8A19.6,19.6,0,0,0,352.38,653H357a19.62,19.62,0,0,0,15.18-32l-50.54-61.74v67.5Z" transform="translate(-304 -280.73)"/></svg>