<svg id="Layer_1" data-name="Layer 1" xmlns="http://www.w3.org/2000/svg" viewBox="0 0 1725 682.4"><defs><style>.cls-1{fill:#fff;}</style></defs><title>LOGO RAIN WHITE</title><rect class="cls-1" x="1141.76" width="61.16" height="491.08"/><polygon class="cls-1" points="810.49 0 590.22 491.08 657.22 491.08 707.75 376.79 903.94 376.79 879.59 317.62 733.11 317.62 838.18 79.64 1019.78 491.08 1086.79 491.08 866.52 0 810.49 0"/><path class="cls-1" d="M184.57,793.71a39.78,39.78,0,0,0-6.68-11.08,42.6,42.6,0,0,0-9.51-8.24,43.07,43.07,0,0,0-11.53-5.14,45.88,45.88,0,0,0-12.67-1.77A44,44,0,0,0,126.62,771a45.63,45.63,0,0,0-14.33,9.67,46.33,46.33,0,0,0-9.67,14.6,45.89,45.89,0,0,0,24,60.49,44,44,0,0,0,17.56,3.5,47.27,47.27,0,0,0,12.63-1.7,43.76,43.76,0,0,0,11.49-5.05,41.56,41.56,0,0,0,9.48-8.21,38.71,38.71,0,0,0,6.67-11h23.71a55.56,55.56,0,0,1-9.67,19.68,64.28,64.28,0,0,1-15.36,14.39,71,71,0,0,1-38.95,11.87A70.78,70.78,0,0,1,126,876.89a68.48,68.48,0,0,1-16.27-6.64A69.49,69.49,0,0,1,96,860a64.48,64.48,0,0,1-10.66-13.29,66.8,66.8,0,0,1-6.83-15.75,64.15,64.15,0,0,1,0-35.19A66.9,66.9,0,0,1,85.29,780,64.22,64.22,0,0,1,96,766.71,68.54,68.54,0,0,1,126,749.89a70.34,70.34,0,0,1,18.16-2.31,71.82,71.82,0,0,1,20.1,2.92,68,68,0,0,1,18.85,8.7,62.22,62.22,0,0,1,15.36,14.45,56.13,56.13,0,0,1,9.67,20.15Z" transform="translate(-76 -196.8)"/><path class="cls-1" d="M396.85,832.69h-26.7v43.82h-23v-126h54.38a50.56,50.56,0,0,1,17.56,3,41.7,41.7,0,0,1,13.84,8.4,38,38,0,0,1,9.06,13,42.28,42.28,0,0,1,3.26,16.76,45.43,45.43,0,0,1-1.78,12.84,37.88,37.88,0,0,1-5.05,10.78,37,37,0,0,1-8,8.42A41.16,41.16,0,0,1,420,829.54l28.06,47H421.58Zm3.87-19.91a22.71,22.71,0,0,0,8.42-1.53,20.72,20.72,0,0,0,6.79-4.25,19.87,19.87,0,0,0,4.51-6.64,23,23,0,0,0,0-17.21,20.85,20.85,0,0,0-4.51-6.72,20.63,20.63,0,0,0-6.87-4.41,23,23,0,0,0-8.53-1.58H370.15v42.34Z" transform="translate(-76 -196.8)"/><path class="cls-1" d="M580.88,750.53h86.31v20H603.94v33.73h54.64v19.81H603.94V856.6H668v19.91H580.88Z" transform="translate(-76 -196.8)"/><path class="cls-1" d="M883.65,852.52H825.59l-9.94,24H791.31l52.4-126.07h21.88L918,876.51H893.54ZM833.7,832.69h41.72l-20-48.61-.75-3.25h-.08l-.76,3.25Z" transform="translate(-76 -196.8)"/><path class="cls-1" d="M1061.08,770.44h-37.43V750.53h98v19.91h-37.55V876.51h-23.05Z" transform="translate(-76 -196.8)"/><path class="cls-1" d="M1254.86,750.53h23.05v126h-23.05Z" transform="translate(-76 -196.8)"/><path class="cls-1" d="M1415.53,813.33a61.39,61.39,0,0,1,2.46-17.59,66.49,66.49,0,0,1,6.83-15.74,64.17,64.17,0,0,1,10.65-13.29,68.65,68.65,0,0,1,30.08-16.82,72.26,72.26,0,0,1,36.25,0,68.53,68.53,0,0,1,30.11,16.82A64.36,64.36,0,0,1,1542.6,780a65.09,65.09,0,0,1,6.9,15.74,63.9,63.9,0,0,1,0,35.19,64.94,64.94,0,0,1-17.59,29,69.27,69.27,0,0,1-13.81,10.28,68,68,0,0,1-16.3,6.64,72.26,72.26,0,0,1-36.25,0,68.31,68.31,0,0,1-16.27-6.64A69.55,69.55,0,0,1,1435.47,860a64.44,64.44,0,0,1-10.65-13.29,66.39,66.39,0,0,1-6.83-15.75A61.36,61.36,0,0,1,1415.53,813.33Zm23,.1a45.46,45.46,0,0,0,3.57,18.1,46.21,46.21,0,0,0,9.67,14.55,45.4,45.4,0,0,0,14.33,9.69,43.88,43.88,0,0,0,17.56,3.5,44.41,44.41,0,0,0,17.67-3.5,45.13,45.13,0,0,0,14.37-9.69,45.63,45.63,0,0,0,9.64-14.55,47,47,0,0,0-9.64-50.85,45.24,45.24,0,0,0-14.37-9.67,44.43,44.43,0,0,0-17.67-3.53,43.9,43.9,0,0,0-17.56,3.53,45.52,45.52,0,0,0-14.33,9.67,46.33,46.33,0,0,0-9.67,14.6A45.81,45.81,0,0,0,1438.58,813.43Z" transform="translate(-76 -196.8)"/><path class="cls-1" d="M1801,876.51h-19.8l-68.56-86v86h-23.06v-126h19.84l68.63,86.05V750.53h23Z" transform="translate(-76 -196.8)"/><polygon class="cls-1" points="1663.19 0.05 1663.03 398.59 1339.06 0 1304.61 0 1304.61 491.08 1366.42 491.08 1366.42 130.43 1660.99 491.13 1725 491.13 1725 0.05 1663.19 0.05"/><path class="cls-1" d="M472.62,506.59c29.31-6.86,54.4-20.22,73.8-39.8C574,439,588.91,399.9,588.54,356.68,587.79,278.31,530.62,199,422.71,199H139.88l48.44,59.15H422.71c30.16,0,55.59,9.63,73.59,27.83,17.56,17.77,27.43,43.28,27.12,70.05-.47,44.77-19,98.14-104.69,98.14H345.67l30.13,36.79,167,199.12h81.64Z" transform="translate(-76 -196.8)"/><path class="cls-1" d="M428.78,647.59,79.44,221v89.19L381.78,680.5a26,26,0,0,0,20.14,9.56h6.74C430.6,690.06,442.68,664.56,428.78,647.59Z" transform="translate(-76 -196.8)"/><path class="cls-1" d="M242,680.49a26,26,0,0,0,20.15,9.57h6.67c21.94,0,34-25.49,20.12-42.47L79.44,391.75v89.37Z" transform="translate(-76 -196.8)"/><path class="cls-1" d="M100,680.49a26,26,0,0,0,20.15,9.57h6.11c21.94,0,34-25.49,20.12-42.47l-67-81.79v89.44Z" transform="translate(-76 -196.8)"/></svg>