<svg id="Layer_1" data-name="Layer 1" xmlns="http://www.w3.org/2000/svg" xmlns:xlink="http://www.w3.org/1999/xlink" viewBox="0 0 1737 686.45"><defs><style>.cls-1{fill:url(#linear-gradient);}.cls-2{fill:url(#linear-gradient-2);}.cls-3{fill:url(#linear-gradient-3);}.cls-4{fill:url(#linear-gradient-4);}.cls-5{fill:url(#linear-gradient-5);}.cls-6{fill:url(#linear-gradient-6);}.cls-7{fill:url(#linear-gradient-7);}.cls-8{fill:url(#linear-gradient-8);}.cls-9{fill:url(#linear-gradient-9);}.cls-10{fill:url(#linear-gradient-10);}.cls-11{fill:url(#linear-gradient-11);}.cls-12{fill:url(#linear-gradient-12);}.cls-13{fill:url(#linear-gradient-13);}.cls-14{fill:url(#linear-gradient-14);}.cls-15{fill:url(#linear-gradient-15);}.cls-16{fill:url(#linear-gradient-16);}.cls-17{fill:url(#linear-gradient-17);}.cls-18{fill:url(#linear-gradient-18);}.cls-19{fill:url(#linear-gradient-19);}.cls-20{fill:url(#linear-gradient-20);}.cls-21{fill:url(#linear-gradient-21);}.cls-22{fill:url(#linear-gradient-22);}.cls-23{fill:url(#linear-gradient-23);}.cls-24{fill:url(#linear-gradient-24);}.cls-25{fill:url(#linear-gradient-25);}.cls-26{fill:url(#linear-gradient-26);}.cls-27{fill:url(#linear-gradient-27);}.cls-28{fill:url(#linear-gradient-28);}.cls-29{fill:url(#linear-gradient-29);}.cls-30{fill:url(#linear-gradient-30);}.cls-31{fill:url(#linear-gradient-31);}.cls-32{fill:url(#linear-gradient-32);}.cls-33{fill:url(#linear-gradient-33);}</style><linearGradient id="linear-gradient" x1="1182.59" y1="645.13" x2="1182.59" y2="-3.24" gradientUnits="userSpaceOnUse"><stop offset="0" stop-color="#0065e3"/><stop offset="1" stop-color="#03e4fa"/></linearGradient><linearGradient id="linear-gradient-2" x1="847.69" y1="645.13" x2="847.69" y2="-3.24" xlink:href="#linear-gradient"/><linearGradient id="linear-gradient-3" x1="1526.14" y1="645.13" x2="1526.14" y2="-3.24" xlink:href="#linear-gradient"/><linearGradient id="linear-gradient-4" x1="384.66" y1="841.97" x2="384.66" y2="193.6" xlink:href="#linear-gradient"/><linearGradient id="linear-gradient-5" x1="-103.21" y1="54.94" x2="963.93" y2="1315.35" xlink:href="#linear-gradient"/><linearGradient id="linear-gradient-6" x1="-186.3" y1="125.29" x2="880.84" y2="1385.69" xlink:href="#linear-gradient"/><linearGradient id="linear-gradient-7" x1="-270.82" y1="196.84" x2="796.33" y2="1457.25" xlink:href="#linear-gradient"/><linearGradient id="linear-gradient-8" x1="1253.59" y1="-377.74" x2="1253.59" y2="522.21" xlink:href="#linear-gradient"/><linearGradient id="linear-gradient-9" x1="918.69" y1="-377.74" x2="918.69" y2="522.21" xlink:href="#linear-gradient"/><linearGradient id="linear-gradient-10" x1="1597.14" y1="-377.74" x2="1597.14" y2="522.21" xlink:href="#linear-gradient"/><linearGradient id="linear-gradient-11" x1="384.66" y1="-316.12" x2="384.66" y2="484.94" xlink:href="#linear-gradient"/><linearGradient id="linear-gradient-12" x1="764.66" y1="1118.89" x2="154.06" y2="351.45" xlink:href="#linear-gradient"/><linearGradient id="linear-gradient-13" x1="679.91" y1="1186.31" x2="69.32" y2="418.87" xlink:href="#linear-gradient"/><linearGradient id="linear-gradient-14" x1="593.6" y1="1254.99" x2="-17" y2="487.54" xlink:href="#linear-gradient"/><linearGradient id="linear-gradient-15" x1="137.02" y1="928.67" x2="137.02" y2="774.88" xlink:href="#linear-gradient"/><linearGradient id="linear-gradient-16" x1="392.96" y1="928.56" x2="392.96" y2="774.94" xlink:href="#linear-gradient"/><linearGradient id="linear-gradient-17" x1="550.2" y1="731.72" x2="550.2" y2="578.09" xlink:href="#linear-gradient"/><linearGradient id="linear-gradient-18" x1="852.14" y1="928.56" x2="852.14" y2="774.94" xlink:href="#linear-gradient"/><linearGradient id="linear-gradient-19" x1="999.84" y1="731.72" x2="999.84" y2="578.09" xlink:href="#linear-gradient"/><linearGradient id="linear-gradient-20" x1="1194.18" y1="731.72" x2="1194.18" y2="578.09" xlink:href="#linear-gradient"/><linearGradient id="linear-gradient-21" x1="1483.23" y1="928.69" x2="1483.23" y2="774.88" xlink:href="#linear-gradient"/><linearGradient id="linear-gradient-22" x1="1674.61" y1="731.72" x2="1674.61" y2="578.09" xlink:href="#linear-gradient"/><linearGradient id="linear-gradient-23" x1="137.31" y1="671.79" x2="137.31" y2="817.43" xlink:href="#linear-gradient"/><linearGradient id="linear-gradient-24" x1="392.15" y1="671.79" x2="392.15" y2="817.43" xlink:href="#linear-gradient"/><linearGradient id="linear-gradient-25" x1="393.6" y1="671.79" x2="393.6" y2="817.43" xlink:href="#linear-gradient"/><linearGradient id="linear-gradient-26" x1="621.2" y1="671.79" x2="621.2" y2="817.43" xlink:href="#linear-gradient"/><linearGradient id="linear-gradient-27" x1="852.14" y1="671.79" x2="852.14" y2="817.43" xlink:href="#linear-gradient"/><linearGradient id="linear-gradient-28" x1="852.04" y1="671.79" x2="852.04" y2="817.43" xlink:href="#linear-gradient"/><linearGradient id="linear-gradient-29" x1="1070.84" y1="671.79" x2="1070.84" y2="817.43" xlink:href="#linear-gradient"/><linearGradient id="linear-gradient-30" x1="1265.18" y1="671.79" x2="1265.18" y2="817.43" xlink:href="#linear-gradient"/><linearGradient id="linear-gradient-31" x1="1483.23" y1="671.79" x2="1483.23" y2="817.43" xlink:href="#linear-gradient"/><linearGradient id="linear-gradient-32" x1="1483.23" y1="671.79" x2="1483.23" y2="817.43" xlink:href="#linear-gradient"/><linearGradient id="linear-gradient-33" x1="1745.61" y1="671.79" x2="1745.61" y2="817.43" xlink:href="#linear-gradient"/></defs><title>LOGO RAIN COLOR</title><rect class="cls-1" x="1151.91" width="61.36" height="492.64"/><polygon class="cls-2" points="819.59 0 598.62 492.64 665.84 492.64 716.52 377.99 913.34 377.99 888.91 318.63 741.97 318.63 847.37 79.89 1029.55 492.64 1096.77 492.64 875.8 0 819.59 0"/><polygon class="cls-3" points="1675 0.05 1674.83 399.85 1349.84 0 1315.28 0 1315.28 492.64 1377.28 492.64 1377.28 130.85 1672.79 492.69 1737 492.69 1737 0.05 1675 0.05"/><path class="cls-4" d="M475.41,507.62c29.4-6.88,54.57-20.28,74-39.93,27.64-27.87,42.62-67.1,42.25-110.45C591,278.62,533.59,199,425.34,199H141.62l48.59,59.34H425.34c30.26,0,55.77,9.65,73.83,27.91,17.62,17.83,27.51,43.42,27.21,70.27-.48,44.91-19.11,98.46-105,98.46H348.06l30.23,36.9L545.81,691.67H627.7Z" transform="translate(-71 -196.84)"/><path class="cls-5" d="M431.43,649.07,81,221.12V310.6l303.3,371.49a26.11,26.11,0,0,0,20.21,9.58h6.76C433.26,691.67,445.38,666.09,431.43,649.07Z" transform="translate(-71 -196.84)"/><path class="cls-6" d="M244,682.07a26,26,0,0,0,20.21,9.6h6.7c22,0,34.12-25.57,20.18-42.6L81,392.42v89.65Z" transform="translate(-71 -196.84)"/><path class="cls-7" d="M101.63,682.07a26.07,26.07,0,0,0,20.22,9.6H128c22,0,34.12-25.57,20.18-42.6L81,567v89.73Z" transform="translate(-71 -196.84)"/><path class="cls-8" d="M1222.91,689.49h61.36V196.85h-61.36Zm8.4-484.24h44.55V681.08h-44.55Z" transform="translate(-71 -196.84)"/><path class="cls-9" d="M890.59,196.85l-221,492.64h67.22l50.68-114.65H984.33l-24.42-59.37H813l105.4-238.73,182.17,412.75h67.23l-221-492.64ZM1106,681.08,918.37,255.93l-118.29,268h154.2l17.51,42.55H782.05L731.37,681.08H682.6L896,205.25h45.33l213.42,475.83Z" transform="translate(-71 -196.84)"/><path class="cls-10" d="M1746,196.9l-.17,399.8L1422.1,198.4l-1.26-1.56h-34.56V689.48h62V327.69l295.51,361.85H1808V196.9Zm53.6,484.23h-51.83l-307.89-377v377h-45.2V205.25h22.16l337.38,415.1.18-415h45.2Z" transform="translate(-71 -196.84)"/><path class="cls-11" d="M549.45,467.69c27.62-27.84,42.62-67.06,42.25-110.45C591,278.62,533.57,199,425.34,199H141.62l48.59,59.34H425.34c30.24,0,55.77,9.65,73.83,27.92,17.59,17.79,27.51,43.4,27.2,70.27-.86,81.37-57.59,98.45-105,98.45H348.06l30.25,37,167.5,199.7H627.7l-152.29-184C505.19,500.65,530.1,487.22,549.45,467.69Zm60.4,215.58H549.73l-165-196.67-19-23.18h55.54c92.82,0,112.92-58.06,113.44-106.76.32-29.09-10.48-56.89-29.64-76.27-19.67-19.9-47.26-30.41-79.8-30.41H194.19l-34.83-42.54h266c102.77,0,157.25,75.4,158,149.88.36,41.12-13.78,78.22-39.81,104.46-18.22,18.39-41.76,31.06-70,37.66l-13.2,3.1Z" transform="translate(-71 -196.84)"/><path class="cls-12" d="M81,221.12V310.6l303.3,371.49a26,26,0,0,0,20.21,9.58h6.76a26.08,26.08,0,0,0,20.18-42.6Zm346.25,452a17.32,17.32,0,0,1-16,10.11h-6.76a17.61,17.61,0,0,1-13.7-6.5L89.38,307.61v-63L424.93,654.39A17.31,17.31,0,0,1,427.23,673.16Z" transform="translate(-71 -196.84)"/><path class="cls-13" d="M81,392.42v89.66l163,200a25.94,25.94,0,0,0,20.21,9.6h6.7a26.08,26.08,0,0,0,20.18-42.6ZM286.89,673.16a17.31,17.31,0,0,1-16,10.11h-6.7a17.59,17.59,0,0,1-13.7-6.51L89.38,479.09V415.94L284.6,654.4A17.31,17.31,0,0,1,286.89,673.16Z" transform="translate(-71 -196.84)"/><path class="cls-14" d="M81,567v89.72l20.65,25.33a26,26,0,0,0,20.22,9.6H128a26.08,26.08,0,0,0,20.18-42.6Zm63,106.14a17.31,17.31,0,0,1-16,10.11h-6.13a17.56,17.56,0,0,1-13.7-6.51l-18.77-23V590.54l52.28,63.86A17.31,17.31,0,0,1,144,673.16Z" transform="translate(-71 -196.84)"/><path class="cls-15" d="M177.55,764.32a66.69,66.69,0,0,0-18.45-8.52,70.86,70.86,0,0,0-19.7-2.86,69.68,69.68,0,0,0-17.79,2.26,67.27,67.27,0,0,0-29.44,16.46,62.54,62.54,0,0,0-10.41,13A65.5,65.5,0,0,0,75.09,800a62.44,62.44,0,0,0,0,34.36,65.43,65.43,0,0,0,6.67,15.42,63.73,63.73,0,0,0,10.41,13,69,69,0,0,0,13.52,10.06,67.17,67.17,0,0,0,15.92,6.49A69.5,69.5,0,0,0,177.54,870a63.74,63.74,0,0,0,15-14.07,53.73,53.73,0,0,0,8.79-17H180.92a41,41,0,0,1-6.55,10.51,43.34,43.34,0,0,1-9.88,8.55,45.68,45.68,0,0,1-12,5.26,48.29,48.29,0,0,1-31.4-1.88,47.32,47.32,0,0,1-14.9-10.08,48.25,48.25,0,0,1-10.06-15.11,49.72,49.72,0,0,1,0-37.69,48.51,48.51,0,0,1,10-15.17,46.93,46.93,0,0,1,46.36-11.9,44.66,44.66,0,0,1,21.92,13.94A41.82,41.82,0,0,1,181,795.85l20.32.08a54,54,0,0,0-8.82-17.5A61.26,61.26,0,0,0,177.55,764.32Z" transform="translate(-71 -196.84)"/><path class="cls-16" d="M418.66,878.91h22.61l-27.65-46.28,1.85-.72a39.32,39.32,0,0,0,10-5.62,36,36,0,0,0,7.64-8.06A36.91,36.91,0,0,0,438,807.88a43.92,43.92,0,0,0,1.72-12.4,41,41,0,0,0-3.14-16.16,36.43,36.43,0,0,0-8.69-12.47,40.13,40.13,0,0,0-13.33-8.09,49,49,0,0,0-17-2.86H344.65v123h19.76V835h29.45Zm-54.25-106.4h32.15a24.87,24.87,0,0,1,9.18,1.7,21.84,21.84,0,0,1,12.34,12.07,24.8,24.8,0,0,1,0,18.6,21.64,21.64,0,0,1-4.9,7.2,22.49,22.49,0,0,1-7.38,4.62,24.46,24.46,0,0,1-9,1.65H364.41Z" transform="translate(-71 -196.84)"/><polygon class="cls-17" points="582.76 629.48 582.76 612.96 527.94 612.96 527.94 575.76 591.39 575.76 591.39 559.06 508.18 559.06 508.18 682.07 592.23 682.07 592.23 665.46 527.94 665.46 527.94 629.48 582.76 629.48"/><path class="cls-18" d="M882.34,854.85l9.93,24.06h20.9L862,755.81H842.28l-51.17,123.1h20.78l10-24.06Zm-32.62-67.62,1-4.3h2.66l1.15,4.55,21,50.84H828.6Z" transform="translate(-71 -196.84)"/><polygon class="cls-19" points="1047.33 559.06 952.35 559.06 952.35 575.67 989.9 575.67 989.9 682.07 1009.66 682.07 1009.66 575.67 1047.33 575.67 1047.33 559.06"/><rect class="cls-20" x="1184.29" y="559.06" width="19.76" height="123.01"/><path class="cls-21" d="M1540.84,784.65a63.25,63.25,0,0,0-10.46-13,67,67,0,0,0-29.47-16.46,70.87,70.87,0,0,0-35.51,0A67.12,67.12,0,0,0,1436,771.66a63.13,63.13,0,0,0-10.41,13,65.92,65.92,0,0,0-6.67,15.38,62.69,62.69,0,0,0,0,34.36,65.43,65.43,0,0,0,6.67,15.42,64.07,64.07,0,0,0,10.41,13,69.34,69.34,0,0,0,13.52,10.06,66.83,66.83,0,0,0,15.93,6.49,70.68,70.68,0,0,0,35.5,0,66.81,66.81,0,0,0,15.95-6.49,68.74,68.74,0,0,0,13.52-10.06,63.38,63.38,0,0,0,17.2-28.4,62.48,62.48,0,0,0,0-34.37A64,64,0,0,0,1540.84,784.65Zm-14.29,51.48a46.39,46.39,0,0,1-25,25.2,46.34,46.34,0,0,1-18.39,3.66,45.79,45.79,0,0,1-18.27-3.66A47.37,47.37,0,0,1,1450,851.25,48.49,48.49,0,0,1,1440,836.14a49.72,49.72,0,0,1,0-37.69,48.56,48.56,0,0,1,10-15.17,46.74,46.74,0,0,1,76.55,15.18,50.17,50.17,0,0,1,0,37.67Z" transform="translate(-71 -196.84)"/><polygon class="cls-22" points="1728.81 682.07 1728.81 559.06 1709.16 559.06 1709.16 648.49 1637.81 559.06 1620.4 559.06 1620.4 682.07 1640.17 682.07 1640.17 592.63 1711.44 682.07 1728.81 682.07"/><path class="cls-23" d="M107.4,784.46A45.25,45.25,0,0,1,152.11,773a43.54,43.54,0,0,1,11.57,5.16,42.86,42.86,0,0,1,9.54,8.27,39.63,39.63,0,0,1,6.27,10.1l.44,1,23.69.09-.65-2.17a55.81,55.81,0,0,0-9.09-18,62.74,62.74,0,0,0-15.4-14.49,68.15,68.15,0,0,0-18.91-8.73,72.15,72.15,0,0,0-38.39-.62A68.85,68.85,0,0,0,91,770.43a64.52,64.52,0,0,0-10.69,13.34,67.89,67.89,0,0,0-6.85,15.77,64.3,64.3,0,0,0,0,35.3,66.64,66.64,0,0,0,6.86,15.83A65.21,65.21,0,0,0,91,864a70.63,70.63,0,0,0,13.85,10.31A68.44,68.44,0,0,0,121.18,881,69.48,69.48,0,0,0,139,883.27a72.18,72.18,0,0,0,20.57-3,70,70,0,0,0,18.9-8.88A64.81,64.81,0,0,0,193.87,857a55.11,55.11,0,0,0,9.07-17.57l.68-2.18h-23.8l-.44,1a39,39,0,0,1-6.29,10.08,42.26,42.26,0,0,1-9.48,8.23,44.47,44.47,0,0,1-11.54,5.06,46.43,46.43,0,0,1-30.28-1.8,45.7,45.7,0,0,1-14.38-9.72,46.76,46.76,0,0,1-9.7-14.59,48,48,0,0,1,0-36.37A46.68,46.68,0,0,1,107.4,784.46ZM90.77,817.3a49.09,49.09,0,0,0,3.85,19.49A49.94,49.94,0,0,0,105,852.43a48.67,48.67,0,0,0,15.43,10.43,49.78,49.78,0,0,0,32.51,2,47.3,47.3,0,0,0,12.42-5.46,44.85,44.85,0,0,0,10.25-8.88,42.2,42.2,0,0,0,6.37-9.92h17a51.67,51.67,0,0,1-7.79,14.33,61.63,61.63,0,0,1-14.62,13.7,67.77,67.77,0,0,1-54.55,9.13,65.84,65.84,0,0,1-15.53-6.33,67.14,67.14,0,0,1-13.18-9.82A61.92,61.92,0,0,1,83.2,848.93a63.73,63.73,0,0,1-6.5-15,60.8,60.8,0,0,1,0-33.41,63.83,63.83,0,0,1,6.5-15,60.6,60.6,0,0,1,10.14-12.65A65.44,65.44,0,0,1,122,756.81a68,68,0,0,1,17.36-2.2,69.06,69.06,0,0,1,19.24,2.8,64.88,64.88,0,0,1,18,8.3h0a59.5,59.5,0,0,1,14.59,13.73,52,52,0,0,1,7.84,14.79l-16.92-.07a43.25,43.25,0,0,0-6.37-9.95,46.2,46.2,0,0,0-10.27-8.9A46.78,46.78,0,0,0,153,769.75a48.67,48.67,0,0,0-48,12.34,50.32,50.32,0,0,0-10.4,15.69A49.51,49.51,0,0,0,90.77,817.3Z" transform="translate(-71 -196.84)"/><path class="cls-24" d="M419.61,805.55a26.34,26.34,0,0,0,0-19.94,23.46,23.46,0,0,0-13.28-13,26.64,26.64,0,0,0-9.79-1.81H362.73V820h34a26,26,0,0,0,9.64-1.77,24,24,0,0,0,7.94-5A23,23,0,0,0,419.61,805.55Zm-14.43,9.57a22.68,22.68,0,0,1-8.42,1.54H366.09V774.18h30.47a23.31,23.31,0,0,1,8.55,1.57,20.91,20.91,0,0,1,13.1,19.81,21.34,21.34,0,0,1-1.68,8.66,19.79,19.79,0,0,1-4.51,6.62A20.59,20.59,0,0,1,405.18,815.12Z" transform="translate(-71 -196.84)"/><path class="cls-25" d="M426.54,827.61a37.25,37.25,0,0,0,8-8.45,37.91,37.91,0,0,0,5.06-10.82,45.45,45.45,0,0,0,1.79-12.88,42.56,42.56,0,0,0-3.27-16.81,38.09,38.09,0,0,0-9.1-13,41.88,41.88,0,0,0-13.89-8.43,50.82,50.82,0,0,0-17.6-3H343V880.58h23.13v-44h26.79l24.8,44h26.55l-28.15-47.11A41.37,41.37,0,0,0,426.54,827.61Zm11.77,49.61H419.64l-24.8-44H362.73v44h-16.4V757.57h51.19A47.52,47.52,0,0,1,414,760.32a38.41,38.41,0,0,1,12.77,7.75A34.57,34.57,0,0,1,435,780a39,39,0,0,1,3,15.49,42.41,42.41,0,0,1-1.65,11.93,35.15,35.15,0,0,1-4.61,9.87,34,34,0,0,1-7.28,7.69,37.84,37.84,0,0,1-9.61,5.39l-3.72,1.43Z" transform="translate(-71 -196.84)"/><path class="cls-26" d="M600.62,828h54.82V808.11H600.62V774.28h63.46V754.21H577.49V880.58h87.42v-20H600.62Zm60.93,36v13.24H580.86V757.57h79.85v13.34H597.26v40.57h54.82v13.15H597.26V864Z" transform="translate(-71 -196.84)"/><path class="cls-27" d="M841.16,754.12,788.59,880.58H813l10-24.06h58.24l9.93,24.06h24.54L863.11,754.12Zm52.23,123.1-9.92-24.06H820.73l-10,24.06H793.62L843.4,757.48h17.47l49.78,119.74Z" transform="translate(-71 -196.84)"/><path class="cls-28" d="M854.69,781.24h-5.32l-1.26,5.46-22,53.29H878l-21.84-52.93Zm-23.57,55.39,20.16-48.77.77-3.26.91,3.51,20,48.52Z" transform="translate(-71 -196.84)"/><path class="cls-29" d="M1021.67,774.18h37.55v106.4h23.12V774.18H1120v-20h-98.34Zm3.37-16.61h91.6v13.25H1079v106.4h-16.4V770.82H1025Z" transform="translate(-71 -196.84)"/><path class="cls-30" d="M1253.61,880.58h23.13V754.21h-23.13Zm3.37-123h16.39V877.22H1257Z" transform="translate(-71 -196.84)"/><path class="cls-31" d="M1542.27,783.77a64.79,64.79,0,0,0-10.73-13.34,68.58,68.58,0,0,0-30.2-16.87,72.85,72.85,0,0,0-36.37,0,68.85,68.85,0,0,0-30.17,16.87,64.92,64.92,0,0,0-10.69,13.34,67.44,67.44,0,0,0-6.84,15.77,64,64,0,0,0,0,35.3,66.61,66.61,0,0,0,6.85,15.83A65.28,65.28,0,0,0,1434.8,864a70.73,70.73,0,0,0,13.85,10.31A68.42,68.42,0,0,0,1465,881a70.53,70.53,0,0,0,18.15,2.34,71.33,71.33,0,0,0,18.21-2.34,68,68,0,0,0,16.35-6.65A70.33,70.33,0,0,0,1531.54,864a64.65,64.65,0,0,0,10.73-13.34,65.62,65.62,0,0,0,6.93-15.8,64.3,64.3,0,0,0,0-35.3A65.55,65.55,0,0,0,1542.27,783.77Zm3.7,50.15a62.64,62.64,0,0,1-6.57,15,61.57,61.57,0,0,1-10.18,12.65,67.21,67.21,0,0,1-13.19,9.82,66,66,0,0,1-15.54,6.33,68.71,68.71,0,0,1-34.65,0,65.91,65.91,0,0,1-15.53-6.33,67.5,67.5,0,0,1-13.19-9.82A62.21,62.21,0,0,1,1427,848.93a63.73,63.73,0,0,1-6.5-15,61,61,0,0,1,0-33.41,64.24,64.24,0,0,1,6.5-15,61.87,61.87,0,0,1,10.13-12.65,65.55,65.55,0,0,1,28.71-16.05,69.36,69.36,0,0,1,34.66,0,65.32,65.32,0,0,1,28.73,16.05,61.45,61.45,0,0,1,10.18,12.65,62.84,62.84,0,0,1,6.57,15,61.12,61.12,0,0,1,0,33.43Z" transform="translate(-71 -196.84)"/><path class="cls-32" d="M1517.72,782.07a49.18,49.18,0,0,0-15.48-10.41,49.75,49.75,0,0,0-38,0,49.14,49.14,0,0,0-15.44,10.42,49.88,49.88,0,0,0-14.25,35.21,49.26,49.26,0,0,0,3.85,19.49,50.17,50.17,0,0,0,10.41,15.64,48.9,48.9,0,0,0,15.43,10.43,47.57,47.57,0,0,0,18.94,3.8,48.2,48.2,0,0,0,19-3.79,48,48,0,0,0,25.85-26.1,50.54,50.54,0,0,0-10.37-54.7Zm7.28,53.4h0a44.78,44.78,0,0,1-24.08,24.31,46.37,46.37,0,0,1-35.34,0,45.54,45.54,0,0,1-14.37-9.72,46.67,46.67,0,0,1-9.71-14.59,48,48,0,0,1,0-36.37,46.62,46.62,0,0,1,9.69-14.64,46,46,0,0,1,14.39-9.71,46.35,46.35,0,0,1,35.34,0A44.42,44.42,0,0,1,1525,799.1a48.48,48.48,0,0,1,0,36.37Z" transform="translate(-71 -196.84)"/><path class="cls-33" d="M1778.48,754.21v86.32l-68.36-85.68-.5-.64h-19.9V880.58h23.13V794.27L1781.13,880l.5.63h19.86V754.21Zm19.65,123h-14.88l-73.76-92.56v92.56h-16.4V757.57H1708l73.84,92.56V757.57h16.29Z" transform="translate(-71 -196.84)"/></svg>